<svg xmlns="http://www.w3.org/2000/svg" width="800" height="800" viewBox="0 0 800 800">
<g fill="none">

  <!--
    TOPOGRAPHIC ELEVATION MAP PATTERN
    5 terrain features, each with 4-6 nested contour rings.
    Index contours (every 4th) use stroke-width 1.4 + higher opacity.
    Regular contours use stroke-width 0.7.
  -->

  <!-- ═══════════════════════════════════════════
       FEATURE 1 — Upper-left mesa
       Center ~(145, 130), elongated E-W ridge
  ═══════════════════════════════════════════ -->

  <!-- contour 1 (index) -->
  <path stroke="white" stroke-width="1.4" stroke-opacity="0.20" d="
    M 280,110
    C 278,78  235,55  165,55
    C 95,55   42,82   35,118
    C 28,154  58,188  118,200
    C 178,212 248,198 278,168
    C 308,138 282,142 280,110 Z"/>

  <!-- contour 2 -->
  <path stroke="white" stroke-width="0.7" stroke-opacity="0.14" d="
    M 264,115
    C 262,86  224,65  160,65
    C 96,65   48,90   42,123
    C 36,156  64,187  120,198
    C 176,209 241,196 269,168
    C 297,140 266,144 264,115 Z"/>

  <!-- contour 3 -->
  <path stroke="white" stroke-width="0.7" stroke-opacity="0.14" d="
    M 248,120
    C 246,94  212,75  155,76
    C 98,77   55,100  50,130
    C 45,160  71,187  123,197
    C 175,207 234,195 260,169
    C 286,143 250,146 248,120 Z"/>

  <!-- contour 4 (index) -->
  <path stroke="white" stroke-width="1.4" stroke-opacity="0.20" d="
    M 232,125
    C 230,102  200,85  150,86
    C 100,87   62,108  58,135
    C 54,162  78,186  126,195
    C 174,204 228,192 251,168
    C 274,144 234,148 232,125 Z"/>

  <!-- contour 5 -->
  <path stroke="white" stroke-width="0.7" stroke-opacity="0.14" d="
    M 215,132
    C 213,111  186,96  144,97
    C 102,98   70,116  67,141
    C 64,166  85,186  129,194
    C 173,202 220,190 241,168
    C 262,146 217,153 215,132 Z"/>

  <!-- contour 6 (summit) -->
  <path stroke="white" stroke-width="0.7" stroke-opacity="0.14" d="
    M 198,139
    C 196,120  172,107  138,108
    C 104,109  78,125   76,147
    C 74,169   93,185  133,192
    C 173,199  211,188  230,168
    C 249,148  200,158  198,139 Z"/>


  <!-- ═══════════════════════════════════════════
       FEATURE 2 — Upper-right peak
       Center ~(640, 115), compact rounded hill
  ═══════════════════════════════════════════ -->

  <!-- contour 1 (index) -->
  <path stroke="white" stroke-width="1.4" stroke-opacity="0.20" d="
    M 740,105
    C 740,62  712,35  645,34
    C 578,33  546,64  544,105
    C 542,146 568,178 622,185
    C 676,192 718,172 736,146
    C 754,120 740,148 740,105 Z"/>

  <!-- contour 2 -->
  <path stroke="white" stroke-width="0.7" stroke-opacity="0.14" d="
    M 724,108
    C 724,69  699,44  640,43
    C 581,42  552,71  550,108
    C 548,145 572,174 622,181
    C 672,188 711,169 727,145
    C 743,121 724,147 724,108 Z"/>

  <!-- contour 3 -->
  <path stroke="white" stroke-width="0.7" stroke-opacity="0.14" d="
    M 708,112
    C 708,76  686,53  635,52
    C 584,51  558,78  556,111
    C 554,144 576,171 622,177
    C 668,183 704,166 718,144
    C 732,122 708,148 708,112 Z"/>

  <!-- contour 4 (index) -->
  <path stroke="white" stroke-width="1.4" stroke-opacity="0.20" d="
    M 690,116
    C 690,83  671,62  628,61
    C 585,60  562,85  561,115
    C 560,145 580,168 622,173
    C 664,178 696,163 708,143
    C 720,123 690,149 690,116 Z"/>

  <!-- contour 5 (summit) -->
  <path stroke="white" stroke-width="0.7" stroke-opacity="0.14" d="
    M 672,120
    C 672,90  656,71  621,71
    C 586,71  566,94  566,120
    C 566,146 583,165 621,169
    C 659,173 672,160 680,142
    C 688,124 672,150 672,120 Z"/>


  <!-- ═══════════════════════════════════════════
       FEATURE 3 — Central mountain (DOMINANT)
       Center ~(400, 375), large irregular hill
       6 contours — most detailed feature
  ═══════════════════════════════════════════ -->

  <!-- contour 1 (index) — outermost -->
  <path stroke="white" stroke-width="1.4" stroke-opacity="0.20" d="
    M 585,355
    C 590,278  552,218  450,205
    C 348,192  258,228  224,292
    C 190,356  204,430  254,468
    C 304,506  380,512  454,498
    C 528,484  581,432  585,355 Z"/>

  <!-- contour 2 -->
  <path stroke="white" stroke-width="0.7" stroke-opacity="0.14" d="
    M 566,358
    C 570,286  535,229  438,217
    C 341,205  256,240  224,300
    C 192,360  206,428  254,464
    C 302,500  374,505  446,492
    C 518,479  563,430  566,358 Z"/>

  <!-- contour 3 -->
  <path stroke="white" stroke-width="0.7" stroke-opacity="0.14" d="
    M 547,361
    C 550,294  518,240  426,229
    C 334,218  254,252  224,308
    C 194,364  208,426  254,460
    C 300,494  368,498  438,486
    C 508,474  545,428  547,361 Z"/>

  <!-- contour 4 (index) -->
  <path stroke="white" stroke-width="1.4" stroke-opacity="0.20" d="
    M 528,364
    C 530,302  501,251  414,241
    C 327,231  252,263  224,315
    C 196,367  210,424  254,456
    C 298,488  362,491  430,480
    C 498,469  527,426  528,364 Z"/>

  <!-- contour 5 -->
  <path stroke="white" stroke-width="0.7" stroke-opacity="0.14" d="
    M 508,368
    C 509,310  483,263  402,254
    C 321,245  252,275  226,323
    C 200,371  214,422  255,452
    C 296,482  356,484  422,474
    C 488,464  508,426  508,368 Z"/>

  <!-- contour 6 (summit) -->
  <path stroke="white" stroke-width="0.7" stroke-opacity="0.14" d="
    M 487,372
    C 487,318  464,275  390,267
    C 316,259  252,287  228,331
    C 204,375  218,420  256,448
    C 294,476  350,477  414,468
    C 478,459  487,426  487,372 Z"/>


  <!-- ═══════════════════════════════════════════
       FEATURE 4 — Lower-left hill
       Center ~(110, 600), partly off-canvas left
  ═══════════════════════════════════════════ -->

  <!-- contour 1 (index) -->
  <path stroke="white" stroke-width="1.4" stroke-opacity="0.20" d="
    M 220,560
    C 222,522  190,495  140,492
    C 90,489   44,514   28,550
    C 12,586   20,626   52,648
    C 84,670  126,672  166,656
    C 206,640  218,598  220,560 Z"/>

  <!-- contour 2 -->
  <path stroke="white" stroke-width="0.7" stroke-opacity="0.14" d="
    M 204,564
    C 206,528  177,503  132,500
    C 87,497   44,521   30,555
    C 16,589   24,625   54,646
    C 84,667  123,669  161,654
    C 199,639  202,600  204,564 Z"/>

  <!-- contour 3 -->
  <path stroke="white" stroke-width="0.7" stroke-opacity="0.14" d="
    M 187,569
    C 188,535  163,511  124,509
    C 85,507   46,529   33,560
    C 20,591   28,624   56,643
    C 84,662  120,664  156,650
    C 192,636  186,603  187,569 Z"/>

  <!-- contour 4 (index) -->
  <path stroke="white" stroke-width="1.4" stroke-opacity="0.20" d="
    M 170,574
    C 170,542  149,520  116,518
    C 83,516   49,537   38,565
    C 27,593   35,623   60,640
    C 85,657  118,658  152,645
    C 186,632  170,606  170,574 Z"/>

  <!-- contour 5 (summit) -->
  <path stroke="white" stroke-width="0.7" stroke-opacity="0.14" d="
    M 153,580
    C 152,550  134,530  108,528
    C 82,526   53,545   44,571
    C 35,597   43,622   65,637
    C 87,652  116,652  148,640
    C 180,628  154,610  153,580 Z"/>


  <!-- ═══════════════════════════════════════════
       FEATURE 5 — Lower-right hill
       Center ~(660, 580), medium rounded hill
  ═══════════════════════════════════════════ -->

  <!-- contour 1 (index) -->
  <path stroke="white" stroke-width="1.4" stroke-opacity="0.20" d="
    M 775,565
    C 778,520  752,482  694,474
    C 636,466  584,492  564,535
    C 544,578  556,628  596,655
    C 636,682  692,684  738,664
    C 784,644  772,610  775,565 Z"/>

  <!-- contour 2 -->
  <path stroke="white" stroke-width="0.7" stroke-opacity="0.14" d="
    M 758,568
    C 760,526  736,490  682,483
    C 628,476  578,501  560,541
    C 542,581  554,628  592,653
    C 630,678  683,680  727,661
    C 771,642  756,610  758,568 Z"/>

  <!-- contour 3 -->
  <path stroke="white" stroke-width="0.7" stroke-opacity="0.14" d="
    M 740,571
    C 741,533  720,498  670,492
    C 620,486  573,510  556,547
    C 539,584  552,628  588,651
    C 624,674  674,676  716,658
    C 758,640  739,609  740,571 Z"/>

  <!-- contour 4 (index) -->
  <path stroke="white" stroke-width="1.4" stroke-opacity="0.20" d="
    M 722,574
    C 722,540  704,507  658,502
    C 612,497  568,519  553,553
    C 538,587  551,628  584,648
    C 617,668  664,670  704,653
    C 744,636  722,608  722,574 Z"/>

  <!-- contour 5 (summit) -->
  <path stroke="white" stroke-width="0.7" stroke-opacity="0.14" d="
    M 703,578
    C 703,547  688,517  646,513
    C 604,509  563,529  550,560
    C 537,591  550,628  580,646
    C 610,664  654,664  692,648
    C 730,632  703,609  703,578 Z"/>

</g>
</svg>
